<svg width="57" height="57" viewBox="0 0 57 57" fill="none" xmlns="http://www.w3.org/2000/svg">
<path d="M46.1667 24.3158C46.1667 21.5263 43.2222 18.7368 37.3333 18.7368H34.3889C32.0461 18.7368 29.7993 17.8552 28.1428 16.2858C26.4862 14.7164 25.5555 12.5879 25.5555 10.3684V2" stroke="#A7E92F" stroke-width="3.125" stroke-linecap="round" stroke-linejoin="round"/>
<path d="M19.6667 20.3895C19.6667 15.4605 10.8333 7 10.8333 7C10.8333 7 2 15.4605 2 20.3895C2 25.3185 5.95439 29.3158 10.8333 29.3158C15.7123 29.3158 19.6667 25.3185 19.6667 20.3895Z" stroke="#A7E92F" stroke-width="3.125"/>
<path d="M46.1667 55H55V29.8947H46.1667V42.4474M46.1667 55V42.4474M46.1667 55H24.0833V42.4474L35.8611 35.4737L46.1667 42.4474M55 24.3158C55 7.57895 43.2222 7.57895 43.2222 7.57895C43.2222 7.57895 55 8.97368 55 2" stroke="#A7E92F" stroke-width="3.125" stroke-linecap="round" stroke-linejoin="round"/>
</svg>
