<svg width="53" height="53" viewBox="0 0 53 53" fill="none" xmlns="http://www.w3.org/2000/svg">
<path d="M43.8685 9.83886e-05C43.5641 0.0036009 43.5109 0.0686799 43.5057 0.074668C43.5004 0.0807692 43.4434 0.143023 43.4833 0.445483C43.5234 0.747942 43.6818 1.21999 43.9746 1.75915C44.5599 2.83747 45.6571 4.18459 47.0858 5.42448C48.5143 6.66448 50.0014 7.56044 51.1502 7.98719C51.7245 8.2005 52.2136 8.29032 52.518 8.28682C52.8225 8.28343 52.8758 8.21835 52.8811 8.21225C52.8863 8.20615 52.9431 8.14401 52.9031 7.84155C52.8631 7.53909 52.7047 7.06704 52.4119 6.52788C51.8267 5.44956 50.7293 4.10245 49.3007 2.86244C47.8722 1.62255 46.3848 0.726588 45.2361 0.299846C44.6617 0.0864184 44.1731 -0.00340413 43.8685 9.83886e-05ZM26.5 4.26729C11.8644 4.26729 0 16.1547 0 30.8186C0 37.9309 2.79096 44.3898 7.33543 49.1563C-2.95965 54.6661 18.9631 52.5116 26.5 52.5116C34.0175 52.5116 55.0846 55.5802 48.9312 46.3338C52.1888 40.5861 53 37.9504 53 30.8186C53 23.4935 50.0392 16.8614 45.2515 12.0577L37.2317 16.8218L40.7067 8.40218C36.6007 5.78444 31.7274 4.26729 26.5 4.26729ZM44.0935 5.51803L41.4345 11.9608L47.4199 8.40512L45.7577 6.96253L45.7568 6.96174L45.7559 6.96084L44.0935 5.51803ZM26.5 13.532C36.0167 13.532 43.7532 21.2835 43.7532 30.8186C43.7532 40.3537 36.0167 48.1052 26.5 48.1052C16.9833 48.1052 9.24681 40.3537 9.24681 30.8186C9.24681 21.2835 16.9833 13.532 26.5 13.532ZM26.5 15.5657C24.1977 15.5657 22.0168 16.0764 20.0622 16.9896C21.3643 20.7045 23.5927 25.3954 26.5 25.3954C29.412 25.3954 31.5661 20.6896 32.8997 16.9718C30.9548 16.0699 28.7873 15.5657 26.5 15.5657ZM37.6359 20.4105C34.5107 22.7993 30.7411 26.3749 31.6401 29.1472C32.5401 31.9226 37.674 32.5207 41.6153 32.6425C41.6861 32.0444 41.7234 31.4361 41.7234 30.8186C41.7234 26.7916 40.1723 23.1343 37.6359 20.4105ZM15.3388 20.4379C12.8173 23.1587 11.2766 26.8051 11.2766 30.8186C11.2766 31.4457 11.3149 32.0635 11.388 32.6704C15.316 32.5772 20.4522 31.9029 21.3502 29.134C22.2494 26.3611 18.4544 22.8574 15.3388 20.4379ZM23.2536 25.3689C23.069 25.3742 22.8893 25.4299 22.7339 25.5299C22.5785 25.6299 22.4534 25.7706 22.3719 25.9366C22.2904 26.1027 22.2556 26.2879 22.2714 26.4722C22.2872 26.6566 22.3529 26.8332 22.4614 26.9829C22.5642 27.1247 22.7018 27.2374 22.8608 27.3103C23.0199 27.3831 23.195 27.4135 23.3693 27.3985C23.5435 27.3835 23.711 27.3237 23.8553 27.2248C23.9997 27.1259 24.1161 26.9913 24.1933 26.8341C24.2705 26.6769 24.3058 26.5023 24.2958 26.3274C24.2858 26.1524 24.2309 25.983 24.1364 25.8356C24.0418 25.6882 23.9109 25.5678 23.7562 25.486C23.6015 25.4043 23.4284 25.3639 23.2536 25.3689ZM29.7464 25.3689C29.5716 25.3639 29.3985 25.4043 29.2438 25.486C29.0891 25.5678 28.9582 25.6882 28.8636 25.8356C28.7691 25.983 28.7142 26.1524 28.7042 26.3274C28.6942 26.5023 28.7295 26.6769 28.8067 26.8341C28.8839 26.9913 29.0003 27.1259 29.1447 27.2248C29.289 27.3237 29.4565 27.3835 29.6307 27.3985C29.805 27.4135 29.9801 27.3831 30.1392 27.3103C30.2982 27.2374 30.4358 27.1247 30.5386 26.9829C30.6471 26.8332 30.7128 26.6566 30.7286 26.4722C30.7444 26.2879 30.7096 26.1027 30.6281 25.9366C30.5466 25.7706 30.4215 25.6299 30.2661 25.5299C30.1107 25.4299 29.931 25.3742 29.7464 25.3689ZM26.5 27.2031C24.5071 27.2031 22.8915 28.8218 22.8915 30.8186C22.8915 32.8154 24.5071 34.4341 26.5 34.4341C28.4929 34.4341 30.1085 32.8154 30.1085 30.8186C30.1085 28.8218 28.4929 27.2031 26.5 27.2031ZM21.2793 31.5007C21.1203 31.503 20.9642 31.5426 20.8233 31.6164C20.6825 31.6902 20.5609 31.7962 20.4684 31.9257C20.3759 32.0552 20.315 32.2046 20.2907 32.362C20.2664 32.5194 20.2793 32.6803 20.3284 32.8318C20.4116 33.0882 20.5931 33.3011 20.8329 33.4235C21.0727 33.5459 21.3512 33.5679 21.6072 33.4846C21.8382 33.4094 22.0347 33.2537 22.1609 33.0458C22.2871 32.8378 22.3347 32.5914 22.295 32.3513C22.2553 32.1112 22.131 31.8933 21.9446 31.7372C21.7582 31.5812 21.5222 31.4972 21.2793 31.5007ZM31.6655 31.5014C31.4121 31.5115 31.1716 31.6164 30.9915 31.7953C30.8114 31.9742 30.7047 32.2142 30.6923 32.468C30.68 32.7218 30.763 32.9711 30.9249 33.1666C31.0868 33.3622 31.316 33.49 31.5672 33.5247C31.8184 33.5595 32.0736 33.4987 32.2823 33.3544C32.4911 33.2101 32.6384 32.9928 32.6952 32.7451C32.7519 32.4974 32.7141 32.2374 32.5891 32.0163C32.4642 31.7952 32.2611 31.629 32.0199 31.5504C31.9056 31.5132 31.7856 31.4966 31.6655 31.5014ZM21.3597 34.6327C18.9251 34.6445 15.6943 36.5345 13.1927 38.2401C15.3385 42.1005 19.1084 44.9247 23.5833 45.7916C24.7098 42.0191 25.6605 36.909 23.3075 35.1963C22.7601 34.7978 22.0967 34.6291 21.3597 34.6327ZM31.6232 34.635C30.8812 34.635 30.2145 34.8063 29.6671 35.2047C27.3109 36.9199 28.3294 41.9957 29.4317 45.7888C33.907 44.9171 37.6758 42.0874 39.8174 38.2219C37.3359 36.5018 34.0737 34.6351 31.6232 34.635ZM26.5 35.2905C26.2308 35.2905 25.9727 35.3977 25.7824 35.5884C25.592 35.7791 25.4851 36.0377 25.4851 36.3074C25.4851 36.5771 25.592 36.8357 25.7824 37.0264C25.9727 37.2171 26.2308 37.3242 26.5 37.3242C26.7692 37.3242 27.0273 37.2171 27.2176 37.0264C27.408 36.8357 27.5149 36.5771 27.5149 36.3074C27.5149 36.0377 27.408 35.7791 27.2176 35.5884C27.0273 35.3977 26.7692 35.2905 26.5 35.2905Z" fill="#A7E92F"/>
</svg>
