<svg width="53" height="53" viewBox="0 0 53 53" fill="none" xmlns="http://www.w3.org/2000/svg">
<path d="M23.4867 0.000641849C22.842 0.0108191 22.1413 0.121884 21.392 0.355076C18.6833 1.1978 12.8911 5.40145 11.7179 11.3149C17.0051 8.82953 21.5124 9.43231 24.205 8.54357C30.2814 6.53987 28.7374 -0.0811082 23.4867 0.00075241V0.000641849ZM37.459 6.0185C35.9566 6.01961 34.4178 6.2257 32.9259 6.72317C37.8313 9.8383 39.5365 13.8548 41.691 15.6303C47.1496 20.129 53.101 13.7984 47.7353 9.21726C46.1444 7.85882 41.9661 6.01585 37.459 6.01862V6.0185ZM29.2882 10.2417C27.0725 10.2165 24.5229 10.6621 22.4033 12.0389C26.67 13.4146 28.7624 16.0574 30.7211 16.9618H30.7213C35.6834 19.2542 38.7598 13.4631 33.849 11.0926C32.9389 10.653 31.2436 10.2641 29.2882 10.2416V10.2417ZM18.7935 11.9318C17.9915 11.9192 17.091 12.1584 16.154 12.7398C14.3304 13.8713 10.9292 18.063 11.2922 22.6474C14.6776 19.8183 18.1285 19.4148 19.931 18.2527C23.5701 15.9067 21.9399 11.9811 18.7935 11.9317V11.9318ZM4.81674 13.3926C2.84413 13.382 0.806675 14.7009 0.156734 17.638C-0.43091 20.2922 0.497279 27.1686 5.29199 31.0919C5.6738 25.491 8.47626 22.0772 9.01358 19.4137C9.78103 15.6174 7.3527 13.4061 4.81662 13.3925L4.81674 13.3926ZM37.6116 15.893C38.493 20.098 37.1348 23.1439 37.291 25.2107C37.6862 30.447 44.4943 30.0875 44.1956 24.8541C44.0782 22.7851 41.9644 17.8857 37.6116 15.8929V15.893ZM26.4956 18.9218C22.1188 18.9218 18.5476 22.321 18.5476 26.4864C18.5476 30.6519 22.1192 34.0508 26.4956 34.0508C30.8724 34.0508 34.4432 30.6518 34.4432 26.4864C34.4432 22.3209 30.8722 18.9217 26.4956 18.9217V18.9218ZM26.4956 20.9883C27.2548 20.9862 28.007 21.1271 28.7088 21.4027C29.4106 21.6782 30.0483 22.0832 30.5851 22.5941C31.122 23.1051 31.5474 23.712 31.837 24.38C32.1265 25.048 32.2745 25.7638 32.2723 26.4864C32.2723 29.5352 29.6991 31.9844 26.4955 31.9844C25.7363 31.9865 24.9842 31.8457 24.2823 31.5701C23.5805 31.2946 22.9428 30.8897 22.4059 30.3787C21.8691 29.8678 21.4436 29.2609 21.1541 28.5929C20.8645 27.9249 20.7165 27.209 20.7187 26.4864C20.7165 25.7638 20.8645 25.0479 21.1541 24.3799C21.4436 23.7119 21.8691 23.1049 22.4059 22.594C22.9428 22.083 23.5805 21.6781 24.2824 21.4025C24.9842 21.1269 25.7364 20.9861 26.4956 20.9882V20.9883ZM47.7079 21.9083C47.326 27.5091 44.5237 30.9229 43.9863 33.5867C42.622 40.3351 51.3577 42.0753 52.8434 35.3622C53.4308 32.7078 52.5026 25.8314 47.7079 21.9083ZM12.1587 24.04C10.3874 24.0478 8.65165 25.4504 8.80553 28.149C8.92327 30.2178 11.0369 35.1171 15.3898 37.1101C14.5082 32.9053 15.8663 29.859 15.7102 27.7921C15.5187 25.2558 13.8227 24.0325 12.1587 24.04ZM41.709 30.3554C38.3236 33.1846 34.8726 33.5882 33.0702 34.7503C28.5033 37.6942 32.2346 43.1257 36.8472 40.263C38.6708 39.1316 42.0718 34.9402 41.7089 30.3557L41.709 30.3554ZM20.1152 35.5149C16.5512 35.4751 15.0085 39.9104 19.1521 41.9105C21.0935 42.8482 26.608 43.5555 30.5976 40.9641C26.3309 39.5884 24.2384 36.9457 22.2798 36.0412H22.2796C21.5044 35.683 20.7751 35.5224 20.1151 35.5149H20.1152ZM7.5418 35.8295C3.68248 35.7425 1.15664 40.2754 5.26468 43.7828C7.38582 45.5942 14.1066 48.2674 20.0739 46.2768C15.1686 43.1617 13.4632 39.1453 11.3087 37.37C10.0294 36.3156 8.72324 35.856 7.5418 35.8295ZM41.2819 41.6853C35.995 44.1704 31.4875 43.5676 28.795 44.4564H28.7946C21.9721 46.7061 24.7564 54.7769 31.6076 52.6449C34.3163 51.8024 40.1085 47.5985 41.2818 41.6852L41.2819 41.6853Z" fill="#A7E92F"/>
</svg>
