<svg width="53" height="53" viewBox="0 0 53 53" fill="none" xmlns="http://www.w3.org/2000/svg">
<path fill-rule="evenodd" clip-rule="evenodd" d="M4.41667 0C3.24529 0 2.1219 0.465326 1.29361 1.29361C0.465326 2.1219 0 3.24529 0 4.41667V48.5833C0 49.7547 0.465326 50.8781 1.29361 51.7064C2.1219 52.5347 3.24529 53 4.41667 53H48.5833C49.7547 53 50.8781 52.5347 51.7064 51.7064C52.5347 50.8781 53 49.7547 53 48.5833V4.41667C53 3.24529 52.5347 2.1219 51.7064 1.29361C50.8781 0.465326 49.7547 0 48.5833 0H4.41667ZM16.8628 20.1135C17.1499 17.6755 18.9122 15.6262 21.331 15.2081C25.0852 14.5603 28.0885 14.5647 31.6969 15.1963C34.104 15.6173 35.8486 17.6623 36.1357 20.0885L38.2778 38.2778H14.7222L16.8628 20.1135ZM13.25 44.1667V41.2222H39.75V44.1667H13.25ZM10.3718 27.9722C10.2838 26.9927 10.2838 26.0073 10.3718 25.0278H5.88889V27.9722H10.3718ZM11.794 19.7086C12.2067 18.8166 12.7 17.9641 13.2677 17.1617L9.38689 14.9195L7.91467 17.4694L11.794 19.7086ZM17.1602 13.2677C17.9596 12.7038 18.8121 12.2077 19.7101 11.794L17.4694 7.91467L14.9195 9.38689L17.1602 13.2677ZM25.0278 10.3718C26.0073 10.2838 26.9927 10.2838 27.9722 10.3718V5.88889H25.0278V10.3718ZM33.2914 11.794C34.1832 12.2071 35.0357 12.7004 35.8383 13.2677L38.0805 9.38689L35.5306 7.91467L33.2914 11.794ZM39.7323 17.1602C40.2962 17.9596 40.7923 18.8121 41.206 19.7101L45.0853 17.4694L43.6131 14.9195L39.7323 17.1602ZM42.6282 25.0278C42.7162 26.0073 42.7162 26.9927 42.6282 27.9722H47.1111V25.0278H42.6282Z" fill="#A7E92F"/>
</svg>
