<svg width="53" height="53" viewBox="0 0 53 53" fill="none" xmlns="http://www.w3.org/2000/svg">
<path d="M51.8497 10.5993L42.0349 0L39.2593 2.99748L45.1481 9.35707V19.0788C45.1492 20.2029 45.5631 21.2806 46.2992 22.0755C47.0352 22.8703 48.0332 23.3174 49.0741 23.3185V45.577C49.0741 46.4204 48.7639 47.2292 48.2117 47.8255C47.6595 48.4218 46.9105 48.7568 46.1296 48.7568C45.3487 48.7568 44.5998 48.4218 44.0476 47.8255C43.4954 47.2292 43.1852 46.4204 43.1852 45.577V27.5582C43.1852 26.996 42.9784 26.4568 42.6102 26.0592C42.2421 25.6617 41.7428 25.4383 41.2222 25.4383H33.3704V4.23972C33.3704 3.6775 33.1636 3.13831 32.7954 2.74076C32.4273 2.3432 31.928 2.11986 31.4074 2.11986H5.88889C5.36828 2.11986 4.86899 2.3432 4.50086 2.74076C4.13274 3.13831 3.92593 3.6775 3.92593 4.23972V48.7568H0V52.9965H37.2963V48.7568H33.3704V29.6781H39.2593V45.365C39.2361 47.0931 39.7622 48.7776 40.7499 50.1374C41.7376 51.4972 43.1272 52.4503 44.6869 52.8376C45.689 53.0676 46.726 53.0531 47.7223 52.7952C48.7186 52.5373 49.6489 52.0424 50.4455 51.3467C51.2421 50.6509 51.8849 49.7719 52.3268 48.7737C52.7687 47.7756 52.9987 46.6834 53 45.577V13.5968C52.9998 12.4724 52.586 11.3942 51.8497 10.5993ZM29.4444 48.7568H7.85185V6.35959H29.4444V48.7568Z" fill="#A7E92F"/>
</svg>
