<svg width="51" height="45" viewBox="0 0 51 45" fill="none" xmlns="http://www.w3.org/2000/svg">
<path d="M28.567 0.396851C24.4675 0.396851 21.0103 3.34839 21.0103 7.12537C21.0103 9.03316 21.8931 10.7298 23.2945 11.9423L24.1716 10.2167C23.3563 9.36762 22.8735 8.28433 22.8735 7.12537C22.8735 4.49917 25.3486 2.26013 28.5669 2.26013C31.7852 2.26013 34.2602 4.49917 34.2602 7.12537C34.2602 8.92685 33.0954 10.5461 31.3249 11.3854L30.5504 13.6168C30.7461 13.5695 30.9399 13.5149 31.1315 13.4533L32.0795 15.1109C31.0106 15.8627 29.976 16.7947 28.867 17.9547L37.2879 36.5245C42.4912 36.7645 47.5116 34.0055 50.0984 29.4844L38.9363 12.4212C36.8488 12.8381 35.1694 13.3585 33.67 14.1394L32.8325 12.6753C34.8052 11.4729 36.1236 9.45695 36.1236 7.12547C36.1236 3.34849 32.6664 0.396851 28.567 0.396851ZM15.8691 1.01246C15.5938 1.01556 15.3045 1.06111 15.0253 1.152C14.3866 1.35944 13.8462 1.78696 13.6112 2.24823L13.5814 2.30723L6.86284 11.8614C6.64184 12.3223 6.61627 12.9946 6.81554 13.6181C7.01946 14.2554 7.44129 14.7883 7.8716 15.0075L22.7449 22.5807C23.1665 22.7955 23.8412 22.8296 24.4683 22.6249C25.0837 22.424 25.6065 22.0157 25.8557 21.5388L28.4808 13.8517C28.486 13.8517 28.4912 13.852 28.4964 13.8521L29.1513 11.965C29.1424 11.9659 29.1332 11.9661 29.1244 11.9669L29.6321 10.4799L29.6622 10.4211C29.8971 9.95983 29.9251 9.27 29.7191 8.63214C29.5131 7.99428 29.0876 7.45672 28.639 7.22826L25.3184 5.53754C24.6411 6.38409 24.4334 7.59419 25.2826 8.73307L25.501 9.09868L26.566 9.65767L25.7114 11.3361L25.6963 11.3288L24.8559 12.982C24.8606 12.9843 24.8652 12.9864 24.8699 12.9887L24.2174 14.2698L13.7013 8.91515L15.6273 5.1329L16.0499 4.3027L19.2437 5.92914C19.4048 4.91365 19.7532 3.93667 20.3136 2.98888L16.8154 1.2079C16.5551 1.0754 16.2231 1.00863 15.8691 1.01246ZM38.4281 14.6123L40.9209 19.1484L33.4819 23.2362L31.4377 19.5169L30.989 18.7005L38.4281 14.6123ZM37.6925 17.1427L33.5196 19.436L34.2175 20.7061L38.3904 18.4128L37.6925 17.1427ZM10.8525 18.6163L8.69217 22.8597L15.8873 26.5234L18.048 22.2801L10.8525 18.6163ZM41.6188 20.4185L44.1115 24.9543L36.6725 29.0421L34.6286 25.3228L34.18 24.5064L41.6188 20.4185ZM40.8833 22.9487L36.7101 25.2419L37.4082 26.5121L41.5813 24.2188L40.8833 22.9487ZM9.32258 25.2715L0.901794 41.8088L1.53562 43.758L9.53365 28.0508L11.1938 28.8964L3.19601 44.6033L5.51217 43.8502L6.85456 43.4137L6.1314 41.1823L8.35658 40.4608L7.63238 38.2344L9.86004 37.51L9.30416 35.8016L13.5659 27.4321L9.32258 25.2715Z" fill="#A7E92F"/>
</svg>
